<?xml version="1.0" encoding="UTF-8"?>
<svg id="Layer_2" data-name="Layer 2" xmlns="http://www.w3.org/2000/svg" viewBox="0 0 192.24 143.84">
  <defs>
    <style>
      .cls-1 {
        fill: #fff;
      }
    </style>
  </defs>
  <g id="Layer_1-2" data-name="Layer 1">
    <path class="cls-1" d="M95.91,107.84c-20.1-.57-39.81-3.19-58.45-11.26-10.97-4.75-21.02-10.91-28.64-20.32C2.39,68.33-1.05,59.31,.7,48.91c1.43-8.5,5.67-15.52,11.78-21.51,9.54-9.37,21.08-15.34,33.59-19.53C66.14,1.16,86.82-1.08,107.87,.47c19.07,1.4,37.57,5.32,54.58,14.48,9.47,5.1,18.01,11.4,23.77,20.8,8.57,13.98,6.99,27.64-2.87,40.29-7.48,9.59-17.56,15.7-28.52,20.42-19.74,8.51-38.99,10.79-58.93,11.37Zm-.26-92.94c-11.31,.22-23,1.02-34.43,4.03-11.04,2.91-21.52,6.86-29.84,15.21-7.13,7.16-9.29,17.24-4.98,26.38,3.7,7.86,10.48,12.57,17.95,16.28,9.32,4.63,19.34,7.15,29.6,8.52,17.11,2.28,34.23,2.17,51.19-1.21,12.25-2.44,23.87-6.37,33.68-14.69,11.01-9.33,11.98-24.52,2.67-34.5-5.4-5.79-12.16-9.72-19.59-12.55-14.77-5.62-30.18-7.25-46.26-7.48Z"/>
    <path class="cls-1" d="M162.07,106.63c0,7.56-.03,15.12,.03,22.68,0,1.14-.48,1.57-1.38,2-10.52,4.96-21.69,7.79-33.05,9.98-1.12,.22-1.63-.01-1.62-1.33,.06-7.07,.04-14.14,0-21.21,0-1.08,.24-1.66,1.41-1.87,11.74-2.1,23.11-5.43,34.03-10.27,.13-.06,.32,.01,.56,.03Z"/>
    <path class="cls-1" d="M66.11,129.24c0,3.49-.04,6.98,.02,10.48,.02,1.21-.16,1.88-1.61,1.58-11.4-2.36-22.61-5.31-33.28-10.08-.91-.41-1.14-.97-1.13-1.91,.04-7.07,.05-14.13,0-21.2-.01-1.64,.59-1.54,1.76-1.01,10.42,4.74,21.38,7.7,32.6,9.75,1.4,.26,1.7,.89,1.67,2.17-.07,3.41-.02,6.82-.02,10.23Z"/>
    <path class="cls-1" d="M114.09,131.48c0,3.33-.06,6.66,.03,9.99,.03,1.31-.42,1.69-1.69,1.78-10.9,.78-21.79,.8-32.69,0-1.3-.09-1.67-.56-1.66-1.82,.05-6.83,.06-13.66,0-20.49-.01-1.42,.37-1.84,1.82-1.71,6.64,.59,13.3,.72,19.97,.56,4.08-.1,8.16-.23,12.22-.58,1.78-.15,2.08,.46,2.04,2.02-.1,3.41-.03,6.83-.03,10.24Z"/>
    <path class="cls-1" d="M18.13,123.67C2.9,113.19-1.19,103.69,.28,85.32c.65-.19,.86,.4,1.14,.73,4.34,5.12,9.43,9.37,15.14,12.88,1.06,.65,1.64,1.34,1.62,2.74-.09,7.24-.04,14.48-.04,22Z"/>
    <path class="cls-1" d="M191.7,85.13c2.45,16.47-3.55,29.09-17.21,38.26-.73-.28-.42-.96-.42-1.47-.02-6.74,0-13.47-.04-20.21,0-1.18,.24-2,1.31-2.67,5.88-3.69,11.1-8.17,15.69-13.38,.2-.22,.47-.38,.67-.53Z"/>
    <path class="cls-1" d="M95.43,74.88c-13.22-.47-27.03-1.65-40.22-6.6-4.92-1.85-9.59-4.14-13.67-7.57-7-5.88-6.99-13.9,.12-19.73,7.56-6.2,16.54-9.1,25.87-11.06,17.54-3.68,35.15-3.92,52.82-.81,9.32,1.64,18.29,4.22,26.44,9.19,2.81,1.72,5.24,3.86,7.03,6.61,3.78,5.79,2.28,10.7-3.57,15.93-5.58,4.98-12.52,7.52-19.59,9.5-11.28,3.17-22.86,4.27-35.24,4.55Z"/>
  </g>
</svg>