<?xml version="1.0" encoding="iso-8859-1" ?>
<!-- Generator: Adobe Illustrator 19.0.0, SVG Export Plug-In . SVG Version: 6.00 Build 0)  -->
<svg
  version="1.1"
  id="Layer_1"
  xmlns="http://www.w3.org/2000/svg"
  xmlns:xlink="http://www.w3.org/1999/xlink"
  x="0px"
  y="0px"
  viewBox="0 0 249.261 249.261"
  style="enable-background:new 0 0 249.261 249.261;"
  xml:space="preserve"
>
<g>
	<g>
		<g>
			<g>
				<path
            style="fill:#4EFFBB;"
            d="M153.213,49.511h-16.044V26.277c0-3.867-3.177-7.003-7.094-7.003s-7.094,3.136-7.094,7.003
					v23.234h-15.883c-5.453,0-9.874,4.366-9.874,9.748v15.653c0,5.385,4.421,9.748,9.874,9.748h15.883v154.057
					c0,3.867,3.174,7.003,7.094,7.003c3.917,0,7.094-3.136,7.094-7.003V84.662h16.044c5.453,0,9.874-4.366,9.874-9.748V59.262
					C163.087,53.877,158.667,49.511,153.213,49.511z"
          />
			</g>
			<g>
				<path
            style="fill:#4EFFBB;"
            d="M71.723,172.068H54.756V26.277c0-3.867-3.174-7.003-7.094-7.003
					c-3.917,0-7.094,3.136-7.094,7.003v145.791h-14.96c-5.453,0-9.874,4.366-9.874,9.748v15.653c0,5.385,4.421,9.748,9.874,9.748
					h14.963v31.5c0,3.867,3.177,7.003,7.094,7.003s7.094-3.136,7.094-7.003v-31.498h16.967c5.453,0,9.874-4.363,9.874-9.748v-15.652
					C81.594,176.431,77.174,172.068,71.723,172.068z"
          />
			</g>
			<g>
				<path
            style="fill:#4EFFBB;"
            d="M239.387,175.569h-17.291V26.277c0-3.867-3.177-7.003-7.094-7.003
					c-3.917,0-7.094,3.136-7.094,7.003v149.292h-14.637c-5.453,0-9.874,4.363-9.874,9.748v15.653c0,5.385,4.421,9.748,9.874,9.748
					h14.637v28c0,3.867,3.174,7.003,7.094,7.003c3.917,0,7.094-3.136,7.094-7.003v-27.997h17.291c5.453,0,9.874-4.363,9.874-9.748
					v-15.654C249.261,179.934,244.84,175.569,239.387,175.569z"
          />
			</g>
		</g>
		<g>
			<g>
				<path
            style="fill:#222051;"
            d="M137.479,33.776h-16.044V10.542c0-3.867-3.177-7.003-7.094-7.003s-7.091,3.136-7.091,7.003
					v23.234H91.367c-5.453,0-9.874,4.366-9.874,9.748v15.653c0,5.385,4.421,9.748,9.874,9.748h15.883v154.057
					c0,3.867,3.174,7.003,7.091,7.003s7.094-3.136,7.094-7.003V68.927h16.044c5.453,0,9.874-4.366,9.874-9.748V43.527
					C147.349,38.142,142.932,33.776,137.479,33.776z"
          />
			</g>
			<g>
				<path
            style="fill:#222051;"
            d="M24.834,71.499v21.059c0,3.917,3.174,7.094,7.094,7.094l0,0c3.917,0,7.094-3.174,7.094-7.094
					V71.499c0-3.917-3.174-7.094-7.094-7.094l0,0C28.011,64.405,24.834,67.582,24.834,71.499z"
          />
				<path
            style="fill:#222051;"
            d="M31.927,55.515c3.917,0,7.094-3.177,7.094-7.094V10.542c0-3.867-3.177-7.003-7.094-7.003
					s-7.094,3.136-7.094,7.003v37.879C24.834,52.338,28.011,55.515,31.927,55.515L31.927,55.515z"
          />
				<path
            style="fill:#222051;"
            d="M55.986,156.331H39.018v-40.694c0-3.917-3.174-7.094-7.094-7.094l0,0
					c-3.917,0-7.094,3.174-7.094,7.094v40.697H9.874C4.421,156.331,0,160.696,0,166.081v15.653c0,5.385,4.421,9.748,9.874,9.748
					h14.963v31.5c0,3.867,3.177,7.003,7.094,7.003s7.094-3.136,7.094-7.003v-31.5h16.967c5.453,0,9.874-4.363,9.874-9.748v-15.653
					C65.859,160.696,61.439,156.331,55.986,156.331z"
          />
			</g>
			<g>
				<path
            style="fill:#222051;"
            d="M223.652,159.834h-17.291V10.542c0-3.867-3.177-7.003-7.094-7.003
					c-3.917,0-7.094,3.136-7.094,7.003v149.291h-14.637c-5.453,0-9.874,4.363-9.874,9.748v15.653c0,5.385,4.421,9.748,9.874,9.748
					h14.637v28c0,3.867,3.177,7.003,7.094,7.003c3.917,0,7.094-3.136,7.094-7.003v-27.997h17.291c5.453,0,9.874-4.363,9.874-9.748
					v-15.653C233.523,164.197,229.105,159.834,223.652,159.834z"
          />
			</g>
		</g>
	</g>
</g>
<g>
</g>
<g>
</g>
<g>
</g>
<g>
</g>
<g>
</g>
<g>
</g>
<g>
</g>
<g>
</g>
<g>
</g>
<g>
</g>
<g>
</g>
<g>
</g>
<g>
</g>
<g>
</g>
<g>
</g>
</svg>
