<svg width="20" height="20" viewBox="0 0 20 20" fill="none" xmlns="http://www.w3.org/2000/svg">
<path d="M0.624749 0H5.62475C5.83178 0 6.02709 0.105469 6.14428 0.277344L9.31225 5.02734C7.37865 5.1875 5.64037 6.02734 4.32787 7.30469L0.105218 0.972656C-0.023688 0.78125 -0.0354068 0.535156 0.0739682 0.332031C0.183343 0.128906 0.394281 0 0.624749 0ZM19.8943 0.972656L15.6716 7.30859C14.363 6.03125 12.6208 5.19141 10.6872 5.03125L13.8552 0.277344C13.9724 0.101562 14.1677 0 14.3747 0H19.3747C19.6052 0 19.8162 0.125 19.9255 0.332031C20.0349 0.539063 20.0232 0.78125 19.8943 0.972656ZM16.8747 13.125C16.8747 16.9219 13.7966 20 9.99975 20C6.20287 20 3.12475 16.9219 3.12475 13.125C3.12475 9.32813 6.20287 6.25 9.99975 6.25C13.7966 6.25 16.8747 9.32813 16.8747 13.125ZM10.3279 9.41797C10.1951 9.14453 9.80834 9.14453 9.67162 9.41797L8.79662 11.1914C8.74194 11.3008 8.64037 11.375 8.52319 11.3906L6.56225 11.6758C6.26147 11.7187 6.14428 12.0859 6.35912 12.3008L7.77709 13.6836C7.86303 13.7695 7.90209 13.8867 7.88256 14.0078L7.54662 15.957C7.49584 16.2539 7.80834 16.4844 8.07787 16.3437L9.82787 15.4219C9.93334 15.3672 10.0622 15.3672 10.1677 15.4219L11.9177 16.3437C12.1872 16.4844 12.4997 16.2578 12.449 15.957L12.113 14.0078C12.0935 13.8906 12.1326 13.7695 12.2185 13.6836L13.6365 12.3008C13.8552 12.0898 13.7341 11.7227 13.4333 11.6758L11.4763 11.3906C11.3591 11.375 11.2537 11.2969 11.2029 11.1914L10.3279 9.41797V9.41797Z" fill="white"/>
</svg>
