<?xml version="1.0" encoding="UTF-8"?>
<svg id="Layer_1" data-name="Layer 1" xmlns="http://www.w3.org/2000/svg" viewBox="0 0 191.9 191.83">
  <defs>
    <style>
      .cls-1 {
        fill: #fff;
      }
    </style>
  </defs>
  <path class="cls-1" d="M71.75,166.72c-3.39-.17-5.18-2.04-6.42-4.73-6.04-13.06-12.15-26.1-18.17-39.17-.71-1.54-1.65-2.5-3.19-3.21-13.16-6.05-26.28-12.16-39.4-18.27-4.59-2.14-5.92-6.42-3.08-9.81,.99-1.17,2.34-1.84,3.7-2.48,12.98-6.03,25.95-12.08,38.95-18.07,1.37-.63,2.25-1.46,2.89-2.84,6.06-13.15,12.18-26.27,18.29-39.39,1.68-3.59,4.06-5.1,7.1-4.71,2.81,.36,4.01,2.38,5.05,4.63,5.96,12.83,11.97,25.63,17.83,38.5,.97,2.13,2.34,3.36,4.42,4.32,12.86,5.89,25.68,11.88,38.49,17.86,3.93,1.83,5.34,4.48,4.2,7.87-.71,2.12-2.4,3.29-4.35,4.19-13.13,6.09-26.25,12.22-39.4,18.29-1.36,.63-2.23,1.44-2.88,2.83-6.09,13.23-12.27,26.41-18.38,39.63-1.21,2.61-2.9,4.43-5.67,4.55Z"/>
  <path class="cls-1" d="M155.94,0c2.67,.12,3.74,1.94,4.54,4.06,1.9,5.06,4.04,10.05,5.61,15.21,1.08,3.54,3.04,5.42,6.56,6.47,5.09,1.53,10,3.64,15.01,5.43,2.34,.84,4.26,1.93,4.25,4.81-.02,2.92-2.09,3.89-4.37,4.72-5.94,2.17-11.85,4.4-17.81,6.52-1.3,.46-2,1.16-2.46,2.46-2.18,6.11-4.49,12.17-6.7,18.27-.79,2.19-1.93,3.88-4.54,3.92-2.73,.04-3.91-1.7-4.73-3.99-2.14-5.95-4.41-11.85-6.51-17.81-.54-1.54-1.35-2.44-2.92-3-6.11-2.18-12.18-4.49-18.24-6.79-2.06-.78-3.72-2.07-3.6-4.53,.11-2.28,1.64-3.52,3.66-4.25,.47-.17,.94-.35,1.4-.52,5.69-2.13,11.36-4.3,17.07-6.37,1.29-.47,2.01-1.15,2.48-2.45,2.21-6.1,4.52-12.16,6.81-18.23,.8-2.13,1.94-3.9,4.49-3.95Z"/>
  <path class="cls-1" d="M156.02,119.94c2.56,.1,3.65,1.91,4.44,4.04,1.84,4.91,3.96,9.73,5.43,14.74,1.15,3.91,3.27,6.01,7.19,7.14,5.1,1.46,10.01,3.62,15.01,5.43,2.21,.8,3.8,2.02,3.8,4.62,0,2.64-1.72,3.76-3.89,4.56-6.09,2.23-12.16,4.52-18.27,6.7-1.28,.46-2.01,1.13-2.48,2.45-2.17,6.11-4.49,12.17-6.7,18.27-.79,2.19-1.92,3.89-4.52,3.94-2.73,.05-3.92-1.67-4.75-3.97-2.08-5.79-4.35-11.52-6.32-17.35-.69-2.05-1.83-3.05-3.8-3.74-5.5-1.91-10.92-4.04-16.38-6.08-.54-.2-1.09-.41-1.62-.65-1.89-.83-3.26-2.11-3.17-4.32,.09-2.17,1.48-3.45,3.41-4.17,6.15-2.32,12.29-4.65,18.47-6.88,1.45-.52,2.3-1.27,2.83-2.77,2.16-6.03,4.45-12.01,6.71-18,.8-2.13,1.92-3.92,4.59-3.96Z"/>
</svg>